<svg width="800" height="300" viewBox="0 0 800 300" xmlns="http://www.w3.org/2000/svg">
  <!-- N -->
  <path d="M 50 60 L 50 240 L 80 240 L 120 120 L 120 240 L 150 240 L 150 60 L 120 60 L 80 180 L 80 60 Z" fill="#1F4E9E"/>
  
  <!-- マ -->
  <path d="M 210 80 L 280 80 L 280 100 L 230 100 L 230 180 L 320 120 L 340 140 L 250 200 L 340 200 L 340 220 L 210 220 Z" fill="#1F4E9E"/>
  
  <!-- イ -->
  <path d="M 380 100 L 420 80 L 440 100 L 410 120 L 410 200 L 450 180 L 470 200 L 390 240 L 390 120 L 360 140 L 340 120 Z" fill="#1F4E9E"/>
  
  <!-- ナ -->
  <path d="M 500 80 L 580 80 L 580 100 L 520 100 L 520 120 L 560 120 L 560 140 L 520 140 L 520 180 L 580 180 L 580 200 L 500 200 Z" fill="#1F4E9E"/>
  
  <!-- ス -->
  <path d="M 620 80 L 700 80 L 700 100 L 660 140 L 700 180 L 700 200 L 680 200 L 640 160 L 600 200 L 580 200 L 580 180 L 620 140 L 580 100 L 580 80 Z" fill="#1F4E9E"/>
  
  <!-- by 上場の法則 -->
  <text x="400" y="260" font-family="Arial, sans-serif" font-size="32" fill="#1F4E9E" text-anchor="middle">by 上場の法則</text>
</svg>